<?xml version="1.0" encoding="UTF-8"?>
<!DOCTYPE svg PUBLIC "-//W3C//DTD SVG 1.1//EN" "http://www.w3.org/Graphics/SVG/1.1/DTD/svg11.dtd">
<svg xmlns="http://www.w3.org/2000/svg" version="1.1" width="200px" height="200px" style="shape-rendering:geometricPrecision; text-rendering:geometricPrecision; image-rendering:optimizeQuality; fill-rule:evenodd; clip-rule:evenodd" xmlns:xlink="http://www.w3.org/1999/xlink">
<g><path style="opacity:1" fill="#f8f9f9" d="M -0.5,-0.5 C 66.1667,-0.5 132.833,-0.5 199.5,-0.5C 199.5,66.1667 199.5,132.833 199.5,199.5C 132.833,199.5 66.1667,199.5 -0.5,199.5C -0.5,132.833 -0.5,66.1667 -0.5,-0.5 Z"/></g>
<g><path style="opacity:1" fill="#041a23" d="M 31.5,4.5 C 77.1679,4.33334 122.835,4.50001 168.5,5C 182.658,8.49116 191.491,17.3245 195,31.5C 195.667,76.5 195.667,121.5 195,166.5C 191.723,181.112 182.89,190.612 168.5,195C 122.5,195.667 76.5,195.667 30.5,195C 15.5914,191.091 6.42473,181.591 3,166.5C 2.33333,122.167 2.33333,77.8333 3,33.5C 6.70301,17.9648 16.203,8.29809 31.5,4.5 Z"/></g>
<g><path style="opacity:1" fill="#778385" d="M 184.5,35.5 C 185.498,68.9959 185.832,102.663 185.5,136.5C 127.998,136.832 70.6642,136.499 13.5,135.5C 70.5,135.5 127.5,135.5 184.5,135.5C 184.5,102.167 184.5,68.8333 184.5,35.5 Z"/></g>
<g><path style="opacity:1" fill="#f4f6f7" d="M 184.5,35.5 C 184.5,68.8333 184.5,102.167 184.5,135.5C 127.5,135.5 70.5,135.5 13.5,135.5C 13.3333,101.498 13.5,67.4984 14,33.5C 16.9334,23.5664 23.4334,17.3998 33.5,15C 76.8333,14.3333 120.167,14.3333 163.5,15C 174.994,17.3281 181.994,24.1614 184.5,35.5 Z"/></g>
<g><path style="opacity:1" fill="#041424" d="M 151.5,128.5 C 161.19,128.168 170.856,128.502 180.5,129.5C 180.291,130.086 179.957,130.586 179.5,131C 170.173,131.5 160.839,131.666 151.5,131.5C 151.5,130.5 151.5,129.5 151.5,128.5 Z"/></g>
<g><path style="opacity:1" fill="#d5a2dd" d="M 151.5,121.5 C 154.166,121.066 155.333,122.066 155,124.5C 152.342,125.694 151.176,124.694 151.5,121.5 Z"/></g>
<g><path style="opacity:1" fill="#50676f" d="M 25.5,123.5 C 32.5,123.5 39.5,123.5 46.5,123.5C 46.5,124.833 46.5,126.167 46.5,127.5C 45.1667,127.5 43.8333,127.5 42.5,127.5C 43.3984,126.842 44.3984,126.176 45.5,125.5C 38.6786,124.833 32.0119,124.167 25.5,123.5 Z"/></g>
<g><path style="opacity:1" fill="#021425" d="M 159.5,121.5 C 166.167,121.5 172.833,121.5 179.5,121.5C 179.5,122.5 179.5,123.5 179.5,124.5C 172.825,124.666 166.158,124.5 159.5,124C 158.402,123.23 158.402,122.397 159.5,121.5 Z"/></g>
<g><path style="opacity:1" fill="#051828" d="M 151.5,115.5 C 155.555,115.176 159.555,115.509 163.5,116.5C 163.291,117.086 162.957,117.586 162.5,118C 158.848,118.499 155.182,118.665 151.5,118.5C 151.5,117.5 151.5,116.5 151.5,115.5 Z"/></g>
<g><path style="opacity:1" fill="#031727" d="M 172.5,115.5 C 174.833,115.5 177.167,115.5 179.5,115.5C 179.5,116.5 179.5,117.5 179.5,118.5C 177.473,118.662 175.473,118.495 173.5,118C 172.748,117.329 172.414,116.496 172.5,115.5 Z"/></g>
<g><path style="opacity:1" fill="#0c1f30" d="M 151.5,109.5 C 160.833,109.5 170.167,109.5 179.5,109.5C 179.5,110.5 179.5,111.5 179.5,112.5C 170.167,112.5 160.833,112.5 151.5,112.5C 151.5,111.5 151.5,110.5 151.5,109.5 Z"/></g>
<g><path style="opacity:1" fill="#021021" d="M 170.5,102.5 C 173.5,102.5 176.5,102.5 179.5,102.5C 179.5,103.5 179.5,104.5 179.5,105.5C 176.102,105.82 172.768,105.487 169.5,104.5C 169.863,103.817 170.196,103.15 170.5,102.5 Z"/></g>
<g><path style="opacity:1" fill="#021525" d="M 151.5,102.5 C 156.167,102.5 160.833,102.5 165.5,102.5C 165.5,103.5 165.5,104.5 165.5,105.5C 160.833,105.5 156.167,105.5 151.5,105.5C 151.5,104.5 151.5,103.5 151.5,102.5 Z"/></g>
<g><path style="opacity:1" fill="#1e3040" d="M 159.5,95.5 C 166.167,95.5 172.833,95.5 179.5,95.5C 179.5,96.8333 179.5,98.1667 179.5,99.5C 173.158,99.6662 166.825,99.4995 160.5,99C 159.663,97.9887 159.33,96.8221 159.5,95.5 Z"/></g>
<g><path style="opacity:1" fill="#dda1c1" d="M 151.5,95.5 C 152.833,95.5 154.167,95.5 155.5,95.5C 155.778,97.3464 155.111,98.6798 153.5,99.5C 151.889,98.6798 151.222,97.3464 151.5,95.5 Z"/></g>
<g><path style="opacity:1" fill="#061b24" d="M 96.5,130.5 C 96.5,123.167 96.5,115.833 96.5,108.5C 94.901,108.232 93.5676,108.566 92.5,109.5C 92.6663,116.508 92.4996,123.508 92,130.5C 89.2809,131.444 86.4475,131.777 83.5,131.5C 83.6666,117.829 83.4999,104.163 83,90.5C 82.1667,89.6667 81.3333,88.8333 80.5,88C 61.5,87.3333 42.5,87.3333 23.5,88C 23,88.5 22.5,89 22,89.5C 21.6667,96.5 21.3333,103.5 21,110.5C 20,111.833 19,111.833 18,110.5C 17.8333,106.667 17.6667,102.833 17.5,99C 17.3932,94.3878 17.8932,89.8878 19,85.5C 19.7504,84.8742 20.5838,84.3742 21.5,84C 36.8333,83.6667 52.1667,83.3333 67.5,83C 71.9383,80.8068 75.2716,77.4734 77.5,73C 85.3991,70.7022 90.2324,65.5356 92,57.5C 94.3449,53.816 97.6782,51.816 102,51.5C 106.392,53.0203 110.892,54.0203 115.5,54.5C 120.96,54.8528 124.793,52.5195 127,47.5C 132.559,27.1561 145.393,19.3228 165.5,24C 175.766,29.4457 179.933,37.9457 178,49.5C 176.562,55.0427 174.562,60.376 172,65.5C 170.728,73.0976 171.895,80.2643 175.5,87C 172.685,89.2544 170.518,88.7544 169,85.5C 166.594,78.3503 165.927,71.0169 167,63.5C 169,58.8333 171,54.1667 173,49.5C 174.311,36.1472 168.311,28.8139 155,27.5C 141.523,28.9955 135.19,36.6621 136,50.5C 133.78,53.54 132.28,56.8733 131.5,60.5C 133.144,60.2865 134.644,60.6198 136,61.5C 137.252,65.6777 138.418,69.8443 139.5,74C 143.167,74.3333 146.833,74.6667 150.5,75C 153.29,77.2103 154.123,80.0437 153,83.5C 151.274,87.9531 149.274,92.2864 147,96.5C 146.5,108.162 146.333,119.829 146.5,131.5C 144.208,131.756 142.041,131.423 140,130.5C 139.501,126.848 139.335,123.182 139.5,119.5C 138.178,119.33 137.011,119.663 136,120.5C 135.501,124.152 135.335,127.818 135.5,131.5C 134.5,131.5 133.5,131.5 132.5,131.5C 132.5,124.833 132.5,118.167 132.5,111.5C 131.167,111.5 129.833,111.5 128.5,111.5C 128.5,118.167 128.5,124.833 128.5,131.5C 127.5,131.5 126.5,131.5 125.5,131.5C 125.666,122.494 125.5,113.494 125,104.5C 123.989,103.663 122.822,103.33 121.5,103.5C 121.666,112.506 121.5,121.506 121,130.5C 119.989,131.337 118.822,131.67 117.5,131.5C 117.5,123.833 117.5,116.167 117.5,108.5C 116.178,108.33 115.011,108.663 114,109.5C 113.5,116.826 113.334,124.159 113.5,131.5C 112.5,131.5 111.5,131.5 110.5,131.5C 110.666,123.826 110.5,116.159 110,108.5C 108.989,107.663 107.822,107.33 106.5,107.5C 106.5,115.5 106.5,123.5 106.5,131.5C 105.5,131.5 104.5,131.5 103.5,131.5C 103.666,125.158 103.5,118.825 103,112.5C 101.989,111.663 100.822,111.33 99.5,111.5C 99.5,118.167 99.5,124.833 99.5,131.5C 98.209,131.737 97.209,131.404 96.5,130.5 Z"/></g>
<g><path style="opacity:1" fill="#a7c1f2" d="M 136.5,112.5 C 140.161,112.35 141.161,113.85 139.5,117C 135.707,117.487 134.707,115.987 136.5,112.5 Z"/></g>
<g><path style="opacity:1" fill="#435559" d="M 92.5,109.5 C 93.5676,108.566 94.901,108.232 96.5,108.5C 96.5,115.833 96.5,123.167 96.5,130.5C 95.5088,123.687 95.1755,116.687 95.5,109.5C 94.5,109.5 93.5,109.5 92.5,109.5 Z"/></g>
<g><path style="opacity:1" fill="#e7aae2" d="M 129.5,104.5 C 132.956,105.536 133.29,107.203 130.5,109.5C 128.296,108.218 127.962,106.551 129.5,104.5 Z"/></g>
<g><path style="opacity:1" fill="#e19ab8" d="M 99.5,104.5 C 102.5,104.167 103.833,105.5 103.5,108.5C 99.56,109.234 98.2266,107.901 99.5,104.5 Z"/></g>
<g><path style="opacity:1" fill="#dda6cb" d="M 114.5,101.5 C 117.084,102.048 118.084,103.715 117.5,106.5C 113.716,106.475 112.716,104.808 114.5,101.5 Z"/></g>
<g><path style="opacity:1" fill="#b2c4f5" d="M 106.5,100.5 C 110.161,100.35 111.161,101.85 109.5,105C 105.707,105.487 104.707,103.987 106.5,100.5 Z"/></g>
<g><path style="opacity:1" fill="#a2b9e5" d="M 92.5,102.5 C 96.1612,102.35 97.1612,103.85 95.5,107C 91.7071,107.487 90.7071,105.987 92.5,102.5 Z"/></g>
<g><path style="opacity:1" fill="#a6bff1" d="M 121.5,96.5 C 125.161,96.3501 126.161,97.8501 124.5,101C 120.707,101.487 119.707,99.9866 121.5,96.5 Z"/></g>
<g><path style="opacity:1" fill="#0a1e2e" d="M 42.5,127.5 C 43.8333,127.5 45.1667,127.5 46.5,127.5C 46.5,126.167 46.5,124.833 46.5,123.5C 39.5,123.5 32.5,123.5 25.5,123.5C 24.171,112.765 24.171,101.931 25.5,91C 43.1667,90.3333 60.8333,90.3333 78.5,91C 79.6529,101.757 79.8196,112.59 79,123.5C 72.2555,124.479 65.4222,124.812 58.5,124.5C 58.5,125.5 58.5,126.5 58.5,127.5C 65.175,127.334 71.8417,127.5 78.5,128C 79.3366,129.011 79.67,130.178 79.5,131.5C 59.1639,131.667 38.8306,131.5 18.5,131C 17.1667,130 17.1667,129 18.5,128C 26.4931,127.5 34.4931,127.334 42.5,127.5 Z"/></g>
<g><path style="opacity:1" fill="#f8fbfa" d="M 28.5,94.5 C 44.1667,94.5 59.8333,94.5 75.5,94.5C 75.5,102.833 75.5,111.167 75.5,119.5C 59.8333,119.5 44.1667,119.5 28.5,119.5C 28.5,111.167 28.5,102.833 28.5,94.5 Z"/></g>
<g><path style="opacity:1" fill="#06171f" d="M 52.5,69.5 C 59.4863,69.331 61.153,72.1643 57.5,78C 50.4159,78.475 48.7492,75.6417 52.5,69.5 Z"/></g>
<g><path style="opacity:1" fill="#0d1d24" d="M 19.5,69.5 C 25.2632,69.7827 26.9298,72.616 24.5,78C 16.1836,78.8375 14.517,76.0042 19.5,69.5 Z"/></g>
<g><path style="opacity:1" fill="#ebf0f0" d="M 53.5,72.5 C 54.5,72.5 55.5,72.5 56.5,72.5C 56.5,73.5 56.5,74.5 56.5,75.5C 55.5,75.5 54.5,75.5 53.5,75.5C 53.5,74.5 53.5,73.5 53.5,72.5 Z"/></g>
<g><path style="opacity:1" fill="#e3eaea" d="M 20.5,72.5 C 22.0481,72.8212 22.7148,73.8212 22.5,75.5C 19.7524,75.5983 19.0857,74.5983 20.5,72.5 Z"/></g>
<g><path style="opacity:1" fill="#031020" d="M 63.5,70.5 C 64.4959,70.4142 65.3292,70.7476 66,71.5C 66.4955,73.4727 66.6621,75.4727 66.5,77.5C 65.5,77.5 64.5,77.5 63.5,77.5C 63.5,75.1667 63.5,72.8333 63.5,70.5 Z"/></g>
<g><path style="opacity:1" fill="#050f1e" d="M 43.5,70.5 C 44.5,70.5 45.5,70.5 46.5,70.5C 46.5,72.8333 46.5,75.1667 46.5,77.5C 45.5,77.5 44.5,77.5 43.5,77.5C 43.5,75.1667 43.5,72.8333 43.5,70.5 Z"/></g>
<g><path style="opacity:1" fill="#041a2b" d="M 36.5,70.5 C 37.4959,70.4142 38.3292,70.7476 39,71.5C 39.4955,73.4727 39.6621,75.4727 39.5,77.5C 38.5,77.5 37.5,77.5 36.5,77.5C 36.5,75.1667 36.5,72.8333 36.5,70.5 Z"/></g>
<g><path style="opacity:1" fill="#051524" d="M 29.5,70.5 C 30.4959,70.4142 31.3292,70.7476 32,71.5C 32.4955,73.4727 32.6621,75.4727 32.5,77.5C 31.5,77.5 30.5,77.5 29.5,77.5C 29.5,75.1667 29.5,72.8333 29.5,70.5 Z"/></g>
<g><path style="opacity:1" fill="#10222a" d="M 84.5,20.5 C 89.6579,19.3312 92.6579,21.3312 93.5,26.5C 92.611,28.8983 91.111,30.8983 89,32.5C 88.6667,39.5 88.3333,46.5 88,53.5C 85.5,57.3333 83,61.1667 80.5,65C 77.2205,67.129 74.2205,66.9623 71.5,64.5C 71.7093,63.914 72.0426,63.414 72.5,63C 74.5,62.6667 76.5,62.3333 78.5,62C 79.8333,61 79.8333,60 78.5,59C 59.8333,58.3333 41.1667,58.3333 22.5,59C 21.1667,60 21.1667,61 22.5,62C 28.8246,62.4995 35.1579,62.6662 41.5,62.5C 41.67,63.8221 41.3366,64.9887 40.5,66C 34.5,66.6667 28.5,66.6667 22.5,66C 18.7873,64.3088 17.6206,61.4755 19,57.5C 19.9025,56.2986 21.0692,55.4652 22.5,55C 42.7276,54.0392 62.7276,54.3726 82.5,56C 85.0078,51.55 86.0078,46.7167 85.5,41.5C 85.1667,38.1667 84.8333,34.8333 84.5,31.5C 80.5034,27.8436 80.5034,24.177 84.5,20.5 Z"/></g>
<g><path style="opacity:1" fill="#d8a5dd" d="M 64.5,62.5 C 65.5,62.5 66.5,62.5 67.5,62.5C 67.4261,66.5412 66.0928,67.2079 63.5,64.5C 63.8627,63.8165 64.1961,63.1499 64.5,62.5 Z"/></g>
<g><path style="opacity:1" fill="#d3a1dc" d="M 45.5,62.5 C 48.1662,62.0658 49.3329,63.0658 49,65.5C 46.3422,66.694 45.1756,65.694 45.5,62.5 Z"/></g>
<g><path style="opacity:1" fill="#dc9ebe" d="M 54.5,62.5 C 57.1662,62.0658 58.3329,63.0658 58,65.5C 55.3422,66.694 54.1756,65.694 54.5,62.5 Z"/></g>
<g><path style="opacity:1" fill="#f5f8f8" d="M 98.5,55.5 C 104.558,54.7246 107.725,57.3913 108,63.5C 110.738,66.3107 113.238,66.1441 115.5,63C 121.8,61.3122 125.467,63.6456 126.5,70C 125.99,72.7558 125.157,75.2558 124,77.5C 125.667,79.5 127.333,81.5 129,83.5C 138.02,80.8515 141.687,84.1848 140,93.5C 135.224,98.9224 130.724,98.5891 126.5,92.5C 125.333,92.1667 124.167,91.8333 123,91.5C 120.183,92.0305 117.35,92.3639 114.5,92.5C 114.703,94.3904 114.037,95.8904 112.5,97C 104.689,98.9383 101.022,95.9383 101.5,88C 100.391,87.3623 99.2247,86.8623 98,86.5C 89.2053,89.4611 85.2053,86.4611 86,77.5C 90.4603,72.2117 94.9603,72.2117 99.5,77.5C 103.303,75.2624 107.303,73.5957 111.5,72.5C 110.223,67.1933 106.889,65.5266 101.5,67.5C 94.9164,64.9181 93.9164,60.9181 98.5,55.5 Z"/></g>
<g><path style="opacity:1" fill="#061c25" d="M 116.5,77.5 C 120.302,78.7786 123.469,81.1119 126,84.5C 126.49,85.7932 126.657,87.1266 126.5,88.5C 122.318,88.6697 118.318,88.6697 114.5,88.5C 114.023,87.5224 113.357,86.6891 112.5,86C 114.246,83.3413 115.58,80.508 116.5,77.5 Z"/></g>
<g><path style="opacity:1" fill="#081c22" d="M 110.5,75.5 C 111.675,75.281 112.675,75.6143 113.5,76.5C 112.167,79.1667 110.833,81.8333 109.5,84.5C 105.745,86.9995 102.411,86.3329 99.5,82.5C 103.026,79.9062 106.692,77.5729 110.5,75.5 Z"/></g>
<g><path style="opacity:1" fill="#d8a8c9" d="M 18.5,45.5 C 21.9563,46.5362 22.2896,48.2029 19.5,50.5C 17.2957,49.218 16.9624,47.5514 18.5,45.5 Z"/></g>
<g><path style="opacity:1" fill="#030e1e" d="M 108.5,44.5 C 113.167,44.5 117.833,44.5 122.5,44.5C 122.5,45.5 122.5,46.5 122.5,47.5C 117.833,47.5 113.167,47.5 108.5,47.5C 108.5,46.5 108.5,45.5 108.5,44.5 Z"/></g>
<g><path style="opacity:1" fill="#07181f" d="M 38.5,19.5 C 46.3433,21.7073 47.3433,25.5406 41.5,31C 38.9238,31.6058 36.5904,31.1058 34.5,29.5C 26.1336,32.5535 24.467,37.7202 29.5,45C 45.4078,46.6356 61.4078,46.969 77.5,46C 78.8333,45 78.8333,44 77.5,43C 69.1667,42.6667 60.8333,42.3333 52.5,42C 51.1667,41 51.1667,40 52.5,39C 60.8333,38.3333 69.1667,38.3333 77.5,39C 81.9255,41.5488 82.5921,44.8821 79.5,49C 71.1667,49.1667 62.8333,49.3333 54.5,49.5C 45.4035,49.6402 36.4035,49.1402 27.5,48C 23.6951,43.9089 22.5284,39.0755 24,33.5C 29.0043,28.9326 33.8376,24.2659 38.5,19.5 Z"/></g>
<g><path style="opacity:1" fill="#071422" d="M 34.5,36.5 C 35.5,36.5 36.5,36.5 37.5,36.5C 37.5,38.5 37.5,40.5 37.5,42.5C 36.5,42.5 35.5,42.5 34.5,42.5C 34.5,40.5 34.5,38.5 34.5,36.5 Z"/></g>
<g><path style="opacity:1" fill="#0c1b22" d="M 98.5,36.5 C 103.989,36.504 105.822,39.1707 104,44.5C 101.034,47.2652 98.367,46.9318 96,43.5C 95.3333,42.1667 95.3333,40.8333 96,39.5C 97.045,38.6266 97.8783,37.6266 98.5,36.5 Z"/></g>
<g><path style="opacity:1" fill="#c8d4d6" d="M 99.5,39.5 C 100.586,39.62 101.253,40.2867 101.5,41.5C 100.696,43.9573 99.6964,43.9573 98.5,41.5C 98.8627,40.8165 99.1961,40.1499 99.5,39.5 Z"/></g>
<g><path style="opacity:1" fill="#061625" d="M 41.5,36.5 C 42.5,36.5 43.5,36.5 44.5,36.5C 44.7989,38.604 44.4656,40.604 43.5,42.5C 41.7175,40.9775 41.0508,38.9775 41.5,36.5 Z"/></g>
<g><path style="opacity:1" fill="#0f2131" d="M 109.5,31.5 C 113.514,31.3345 117.514,31.5012 121.5,32C 125.065,34.1775 125.399,36.8442 122.5,40C 117.833,40.6667 113.167,40.6667 108.5,40C 107.041,36.9295 107.374,34.0961 109.5,31.5 Z"/></g>
<g><path style="opacity:1" fill="#e5eaec" d="M 111.5,34.5 C 114.518,34.3354 117.518,34.502 120.5,35C 120.957,35.414 121.291,35.914 121.5,36.5C 117.833,37.8333 114.167,37.8333 110.5,36.5C 110.863,35.8165 111.196,35.1499 111.5,34.5 Z"/></g>
<g><path style="opacity:1" fill="#0d1c24" d="M 97.5,20.5 C 104.676,19.9846 106.342,22.8179 102.5,29C 95.9984,28.9998 94.3318,26.1665 97.5,20.5 Z"/></g>
<g><path style="opacity:1" fill="#e0e6e6" d="M 85.5,23.5 C 88.9103,23.3838 90.2436,25.0504 89.5,28.5C 85.0706,29.0826 83.7372,27.4159 85.5,23.5 Z"/></g>
<g><path style="opacity:1" fill="#f0f5f5" d="M 38.5,23.5 C 39.5,23.5 40.5,23.5 41.5,23.5C 41.5,24.8333 41.5,26.1667 41.5,27.5C 40.1667,27.5 38.8333,27.5 37.5,27.5C 37.4326,26.0413 37.7659,24.7079 38.5,23.5 Z"/></g>
<g><path style="opacity:1" fill="#d7a6de" d="M 128.5,21.5 C 130.912,21.6941 131.912,23.0274 131.5,25.5C 130.167,25.5 128.833,25.5 127.5,25.5C 127.433,24.0413 127.766,22.7079 128.5,21.5 Z"/></g>
<g><path style="opacity:1" fill="#eff4f3" d="M 99.5,23.5 C 101.465,23.9483 101.798,24.9483 100.5,26.5C 99.6143,25.675 99.281,24.675 99.5,23.5 Z"/></g>
<g><path style="opacity:1" fill="#07181f" d="M 117.5,20.5 C 124.896,20.6148 126.23,23.4481 121.5,29C 115.254,28.7055 113.921,25.8721 117.5,20.5 Z"/></g>
<g><path style="opacity:1" fill="#e7ecec" d="M 118.5,23.5 C 121.957,23.6672 122.29,24.6672 119.5,26.5C 118.614,25.675 118.281,24.675 118.5,23.5 Z"/></g>
<g><path style="opacity:1" fill="#0a1726" d="M 109.5,20.5 C 110.117,20.6107 110.617,20.944 111,21.5C 111.497,23.8098 111.663,26.1432 111.5,28.5C 110.5,28.5 109.5,28.5 108.5,28.5C 108.279,25.7212 108.612,23.0545 109.5,20.5 Z"/></g>
<g><path style="opacity:1" fill="#112130" d="M 75.5,20.5 C 76.7479,21.3339 77.4146,22.6672 77.5,24.5C 76.7086,29.612 75.7086,29.612 74.5,24.5C 74.6233,23.0755 74.9566,21.7421 75.5,20.5 Z"/></g>
<g><path style="opacity:1" fill="#071a2a" d="M 67.5,21.5 C 68.5,21.5 69.5,21.5 70.5,21.5C 70.8076,23.924 70.4742,26.2573 69.5,28.5C 68.914,28.2907 68.414,27.9574 68,27.5C 67.5045,25.5273 67.3379,23.5273 67.5,21.5 Z"/></g>
<g><path style="opacity:1" fill="#0a1920" d="M 57.5,20.5 C 64.2248,20.2044 65.8915,22.8711 62.5,28.5C 55.4019,29.4567 53.7353,26.7901 57.5,20.5 Z"/></g>
<g><path style="opacity:1" fill="#eff7f7" d="M 58.5,23.5 C 61.5476,23.494 62.0476,24.494 60,26.5C 58.9614,25.7562 58.4614,24.7562 58.5,23.5 Z"/></g>
<g><path style="opacity:1" fill="#142a3b" d="M 49.5,20.5 C 51.8896,20.6848 52.8896,22.0182 52.5,24.5C 51.1667,29.8333 49.8333,29.8333 48.5,24.5C 48.6233,23.0755 48.9566,21.7421 49.5,20.5 Z"/></g>
<g><path style="opacity:1" fill="#d7dbdc" d="M 58.5,139.5 C 58.81,142.713 58.4767,145.713 57.5,148.5C 57.4565,141.957 56.7898,141.957 55.5,148.5C 54.3061,149.67 53.6395,149.337 53.5,147.5C 53.2914,146.078 52.7914,144.745 52,143.5C 51.5045,145.473 51.3379,147.473 51.5,149.5C 49.5977,146.663 48.931,143.329 49.5,139.5C 50.8333,139.5 52.1667,139.5 53.5,139.5C 53.4914,141.308 53.9914,142.975 55,144.5C 55.3333,143.167 55.6667,141.833 56,140.5C 56.6708,139.748 57.5041,139.414 58.5,139.5 Z"/></g>
<g><path style="opacity:1" fill="#dadedf" d="M 79.5,142.5 C 81.1788,145.012 80.8454,147.012 78.5,148.5C 78.7852,146.712 78.4519,145.045 77.5,143.5C 76.0118,145.149 75.0118,147.149 74.5,149.5C 73.8076,148.975 73.3076,148.308 73,147.5C 71,150.167 69,150.167 67,147.5C 65.0295,149.668 62.8629,150.002 60.5,148.5C 60.5608,145.95 61.8941,144.45 64.5,144C 62.8853,143.938 61.5519,143.771 60.5,143.5C 62.4495,141.048 64.6162,141.048 67,143.5C 69,140.833 71,140.833 73,143.5C 73.6228,139.068 74.6228,138.735 76,142.5C 77.2917,141.209 78.4583,141.209 79.5,142.5 Z"/></g>
<g><path style="opacity:1" fill="#d3d7d9" d="M 86.5,141.5 C 88.3904,141.297 89.8904,141.963 91,143.5C 94.8363,140.507 97.003,141.507 97.5,146.5C 91.7924,146.492 91.4591,146.992 96.5,148C 94.5217,150.015 92.6884,149.848 91,147.5C 90.6924,148.308 90.1924,148.975 89.5,149.5C 88.5344,147.604 88.2011,145.604 88.5,143.5C 87.5,143.5 86.5,143.5 85.5,143.5C 85.7989,145.604 85.4656,147.604 84.5,149.5C 83.5258,147.257 83.1924,144.924 83.5,142.5C 84.791,142.737 85.791,142.404 86.5,141.5 Z"/></g>
<g><path style="opacity:1" fill="#d7dbdc" d="M 101.5,139.5 C 103.369,141.635 104.036,144.302 103.5,147.5C 105.167,147.5 106.833,147.5 108.5,147.5C 107.859,142.705 109.693,141.039 114,142.5C 114.49,143.793 114.657,145.127 114.5,146.5C 109.206,146.682 109.206,147.182 114.5,148C 113.737,148.944 112.737,149.444 111.5,149.5C 108.326,149.169 104.992,149.169 101.5,149.5C 101.5,146.167 101.5,142.833 101.5,139.5 Z"/></g>
<g><path style="opacity:1" fill="#eff0f1" d="M 126.5,141.5 C 126.218,142.778 125.551,143.778 124.5,144.5C 124.785,146.288 124.452,147.955 123.5,149.5C 122.526,147.257 122.192,144.924 122.5,142.5C 123.959,142.567 125.292,142.234 126.5,141.5 Z"/></g>
<g><path style="opacity:1" fill="#e9ecec" d="M 129.5,144.5 C 128.71,145.609 128.21,146.942 128,148.5C 127.211,146.288 127.378,144.288 128.5,142.5C 130.01,141.272 131.51,141.272 133,142.5C 133.814,144.902 133.647,147.235 132.5,149.5C 131.833,147.5 131.167,145.5 130.5,143.5C 129.893,143.624 129.56,143.957 129.5,144.5 Z"/></g>
<g><path style="opacity:1" fill="#e8eaeb" d="M 137.5,149.5 C 137.198,146.941 137.532,144.607 138.5,142.5C 142.124,140.666 143.791,141.833 143.5,146C 143.167,147.167 142.833,148.333 142.5,149.5C 140.843,141.828 139.177,141.828 137.5,149.5 Z"/></g>
<g><path style="opacity:1" fill="#e8eaeb" d="M 149.5,142.5 C 150.473,144.948 150.806,147.615 150.5,150.5C 150.167,151.167 149.833,151.833 149.5,152.5C 148.167,152.5 146.833,152.5 145.5,152.5C 144.375,151.348 144.375,150.348 145.5,149.5C 146.708,150.782 148.042,150.782 149.5,149.5C 148.311,148.571 146.978,148.238 145.5,148.5C 144.378,146.712 144.211,144.712 145,142.5C 146.49,141.272 147.99,141.272 149.5,142.5 Z"/></g>
<g><path style="opacity:1" fill="#9ea7aa" d="M 78.5,148.5 C 80.8454,147.012 81.1788,145.012 79.5,142.5C 80.1577,141.602 80.8243,140.602 81.5,139.5C 82.487,142.768 82.8204,146.102 82.5,149.5C 80.901,149.768 79.5676,149.434 78.5,148.5 Z"/></g>
<g><path style="opacity:1" fill="#6e7c81" d="M 126.5,141.5 C 127.492,141.328 128.158,141.662 128.5,142.5C 127.378,144.288 127.211,146.288 128,148.5C 128.21,146.942 128.71,145.609 129.5,144.5C 129.5,146.167 129.5,147.833 129.5,149.5C 128.5,149.5 127.5,149.5 126.5,149.5C 126.923,147.219 126.256,145.552 124.5,144.5C 125.551,143.778 126.218,142.778 126.5,141.5 Z"/></g>
<g><path style="opacity:1" fill="#869296" d="M 138.5,142.5 C 137.532,144.607 137.198,146.941 137.5,149.5C 136.5,149.5 135.5,149.5 134.5,149.5C 134.18,146.102 134.513,142.768 135.5,139.5C 136.548,140.548 137.548,141.548 138.5,142.5 Z"/></g>
<g><path style="opacity:1" fill="#5e6e74" d="M 149.5,142.5 C 149.56,141.957 149.893,141.624 150.5,141.5C 151.803,144.645 151.803,147.645 150.5,150.5C 150.806,147.615 150.473,144.948 149.5,142.5 Z"/></g>
<g><path style="opacity:1" fill="#1a252b" d="M 68.5,143.5 C 75.1667,144.833 75.1667,146.167 68.5,147.5C 68.5,146.167 68.5,144.833 68.5,143.5 Z"/></g>
<g><path style="opacity:1" fill="#c3c6c7" d="M 116.5,141.5 C 118.144,141.286 119.644,141.62 121,142.5C 121.497,144.81 121.663,147.143 121.5,149.5C 119.533,149.739 117.699,149.406 116,148.5C 115.342,146.892 115.842,145.725 117.5,145C 115.273,144.296 114.94,143.129 116.5,141.5 Z"/></g>
<g><path style="opacity:1" fill="#0e141a" d="M 146.5,143.5 C 149.861,144.203 150.194,145.537 147.5,147.5C 146.571,146.311 146.238,144.978 146.5,143.5 Z"/></g>
<g><path style="opacity:1" fill="#617176" d="M 53.5,147.5 C 52.8333,148.167 52.1667,148.833 51.5,149.5C 51.3379,147.473 51.5045,145.473 52,143.5C 52.7914,144.745 53.2914,146.078 53.5,147.5 Z"/></g>
<g><path style="opacity:1" fill="#879295" d="M 58.5,139.5 C 59.1667,140.833 59.8333,142.167 60.5,143.5C 61.5519,143.771 62.8853,143.938 64.5,144C 61.8941,144.45 60.5608,145.95 60.5,148.5C 59.3478,149.625 58.3478,149.625 57.5,148.5C 58.4767,145.713 58.81,142.713 58.5,139.5 Z"/></g>
<g><path style="opacity:1" fill="#2d3c41" d="M 63.5,145.5 C 64.0431,145.56 64.3764,145.893 64.5,146.5C 63.635,147.583 62.635,147.749 61.5,147C 62.4158,146.722 63.0825,146.222 63.5,145.5 Z"/></g>
<g><path style="opacity:1" fill="#636d70" d="M 145.5,148.5 C 146.978,148.238 148.311,148.571 149.5,149.5C 148.042,150.782 146.708,150.782 145.5,149.5C 145.5,149.167 145.5,148.833 145.5,148.5 Z"/></g>
<g><path style="opacity:1" fill="#00050a" d="M 145.5,152.5 C 146.833,152.5 148.167,152.5 149.5,152.5C 161.167,153.167 172.833,153.833 184.5,154.5C 127.5,154.5 70.5,154.5 13.5,154.5C 57.5,153.833 101.5,153.167 145.5,152.5 Z"/></g>
<g><path style="opacity:1" fill="#f9fbfb" d="M 13.5,154.5 C 70.5,154.5 127.5,154.5 184.5,154.5C 186.101,170.322 179.434,180.655 164.5,185.5C 119.476,185.813 74.4765,185.479 29.5,184.5C 17.3862,178.28 12.0529,168.28 13.5,154.5 Z"/></g>
<g><path style="opacity:1" fill="#151515" d="M 95.5,161.5 C 96.791,161.263 97.791,161.596 98.5,162.5C 97.4935,166.858 96.3269,171.191 95,175.5C 94.2904,176.973 93.1238,177.64 91.5,177.5C 89.8177,164.199 88.151,164.199 86.5,177.5C 85.1779,177.67 84.0113,177.337 83,176.5C 81.654,171.448 80.154,166.448 78.5,161.5C 79.6888,160.571 81.0222,160.238 82.5,160.5C 83.0164,163.899 83.8497,167.232 85,170.5C 87.6667,157.167 90.3333,157.167 93,170.5C 93.9931,167.526 94.8264,164.526 95.5,161.5 Z"/></g>
<g><path style="opacity:1" fill="#121212" d="M 118.5,161.5 C 116.188,163.146 114.188,165.146 112.5,167.5C 114.275,170.738 116.275,173.738 118.5,176.5C 117.399,177.598 116.066,177.765 114.5,177C 112.943,174.704 111.276,172.538 109.5,170.5C 108.914,170.709 108.414,171.043 108,171.5C 107.505,173.473 107.338,175.473 107.5,177.5C 106.5,177.5 105.5,177.5 104.5,177.5C 104.5,171.833 104.5,166.167 104.5,160.5C 105.5,160.5 106.5,160.5 107.5,160.5C 107.337,162.857 107.503,165.19 108,167.5C 110.018,165.65 111.851,163.65 113.5,161.5C 115.299,160.212 116.965,160.212 118.5,161.5 Z"/></g>
<g><path style="opacity:1" fill="#fdfdfd" d="M 118.5,161.5 C 118.5,166.5 118.5,171.5 118.5,176.5C 116.275,173.738 114.275,170.738 112.5,167.5C 114.188,165.146 116.188,163.146 118.5,161.5 Z"/></g>
<g><path style="opacity:1" fill="#0a0a0a" d="M 119.5,160.5 C 120.5,160.5 121.5,160.5 122.5,160.5C 122.5,166.167 122.5,171.833 122.5,177.5C 121.5,177.5 120.5,177.5 119.5,177.5C 119.5,171.833 119.5,166.167 119.5,160.5 Z"/></g>
<g><path style="opacity:1" fill="#4e4e4e" d="M 95.5,161.5 C 97.9479,160.527 100.615,160.194 103.5,160.5C 103.5,166.167 103.5,171.833 103.5,177.5C 102.167,177.5 100.833,177.5 99.5,177.5C 99.8205,172.305 99.4872,167.305 98.5,162.5C 97.791,161.596 96.791,161.263 95.5,161.5 Z"/></g>
<g><path style="opacity:1" fill="#000000" d="M 100.5,161.5 C 101.809,163.571 102.475,166.071 102.5,169C 102.167,171.5 101.833,174 101.5,176.5C 100.506,171.544 100.173,166.544 100.5,161.5 Z"/></g>
<g><path style="opacity:1" fill="#00000a" d="M 29.5,184.5 C 74.4765,185.479 119.476,185.813 164.5,185.5C 120.669,186.665 76.6686,186.831 32.5,186C 31.2625,185.768 30.2625,185.268 29.5,184.5 Z"/></g>
</svg>
